<svg xmlns="http://www.w3.org/2000/svg" width="1024" height="1024" viewBox="0 0 1024 1024" fill="none">
  <defs>
    <linearGradient id="left-gradient" x1="256" y1="377.6" x2="512" y2="505.6" gradientUnits="userSpaceOnUse">
      <stop offset="0" stop-color="#D99A95" />
      <stop offset="0.55" stop-color="#C96C68" />
      <stop offset="1" stop-color="#AF5652" />
    </linearGradient>
    <linearGradient id="right-top-gradient" x1="512" y1="377.6" x2="768" y2="505.6" gradientUnits="userSpaceOnUse">
      <stop offset="0" stop-color="#E9D69B" />
      <stop offset="0.56" stop-color="#D5BA6E" />
      <stop offset="1" stop-color="#BA9B4E" />
    </linearGradient>
    <linearGradient id="right-bottom-gradient" x1="512" y1="518.4" x2="768" y2="646.4" gradientUnits="userSpaceOnUse">
      <stop offset="0" stop-color="#97B2D2" />
      <stop offset="0.54" stop-color="#6F8FB6" />
      <stop offset="1" stop-color="#526F97" />
    </linearGradient>
    <clipPath id="left-top" clipPathUnits="userSpaceOnUse">
      <rect x="256" y="377.6" width="256" height="128" />
    </clipPath>
    <clipPath id="right-top" clipPathUnits="userSpaceOnUse">
      <rect x="512" y="377.6" width="256" height="128" />
    </clipPath>
    <clipPath id="right-bottom" clipPathUnits="userSpaceOnUse">
      <rect x="512" y="518.4" width="256" height="128" />
    </clipPath>
  </defs>
  <g transform="rotate(45 512 512)">
    <circle cx="384" cy="505.6" r="128" fill="url(#left-gradient)" clip-path="url(#left-top)" />
    <circle cx="640" cy="505.6" r="128" fill="url(#right-top-gradient)" clip-path="url(#right-top)" />
    <circle cx="640" cy="518.4" r="128" fill="url(#right-bottom-gradient)" clip-path="url(#right-bottom)" />
    <rect x="256" y="505.6" width="512" height="12.8" fill="#FFFFFF" />
    <path d="M256 505.6A128 128 0 0 1 512 505.6" stroke="#F5D7D3" stroke-opacity="0.42" stroke-width="18" stroke-linecap="round" />
    <path d="M512 505.6A128 128 0 0 1 768 505.6" stroke="#F8E9BF" stroke-opacity="0.4" stroke-width="18" stroke-linecap="round" />
    <path d="M512 518.4A128 128 0 0 0 768 518.4" stroke="#D0DDED" stroke-opacity="0.44" stroke-width="18" stroke-linecap="round" />
  </g>
</svg>
